<?xml version="1.0" encoding="UTF-8"?>
<svg id="Layer_1" xmlns="http://www.w3.org/2000/svg" version="1.1" viewBox="0 0 703.95 339.22">
  <!-- Generator: Adobe Illustrator 29.5.0, SVG Export Plug-In . SVG Version: 2.1.0 Build 137)  -->
  <defs>
    <style>
      .st0 {
        fill: #262626;
      }

      .st1 {
        fill: #db3412;
      }
    </style>
  </defs>
  <g>
    <g>
      <path class="st1" d="M100.45,41.61l-10.4,10.4c17.24,17.24,17.24,45.18,0,62.41-17.23,17.24-45.18,17.24-62.41,0-17.24-17.23-17.24-45.18,0-62.41h-.01s27.49-27.5,27.49-27.5l3.71-3.71h.01s0-20.79,0-20.79L17.23,41.61c-22.98,22.98-22.98,60.24,0,83.22,22.98,22.98,60.24,22.98,83.22,0,22.98-22.98,22.98-60.24,0-83.22"/>
      <path class="st1" d="M85.03,36.63c2.99-2.99,2.99-7.83,0-10.82-2.99-2.99-7.83-2.99-10.82,0-2.99,2.99-2.99,7.83,0,10.82,2.99,2.99,7.83,2.99,10.82,0"/>
    </g>
    <path class="st0" d="M216.17,41.69h-16.12v50.84l15.76-.35c20.9-.36,32.24-8.68,32.24-25.86,0-15.76-11.16-24.62-31.88-24.62M215.11,102.8l-15.06.17v38.97h-11.34V31.23h27.81c29.23,0,43.22,14.17,43.22,34.54,0,24.27-17.18,36.67-44.64,37.02"/>
    <path class="st0" d="M310.78,141.06l-6.56,17.53c-7.44,19.84-15.23,25.51-26.21,25.51-6.2,0-10.8-1.59-15.76-3.72l3.37-10.1c3.9,2.13,7.97,3.54,12.4,3.54,6.2,0,10.81-3.37,16.65-18.77l5.49-14.35-31.71-79.89h11.87l25.51,66.96,24.98-66.96h11.51l-31.53,80.24Z"/>
    <polygon class="st0" points="379.71 41.86 379.71 141.94 368.37 141.94 368.37 41.86 329.4 41.86 329.4 31.23 418.68 31.23 418.68 41.86 379.71 41.86"/>
    <g>
      <path class="st0" d="M451.06,68.43c-17.18,0-28.52,13.64-28.52,32.77s11.51,33.12,28.7,33.12,28.52-13.64,28.52-32.77-11.51-33.12-28.7-33.12M450.7,144.24c-22.5,0-39.15-16.65-39.15-42.69s17.36-43.04,40.03-43.04,38.97,16.65,38.97,42.69-17.36,43.04-39.85,43.04"/>
      <path class="st0" d="M518.19,141.94h-10.98V60.82l10.98-2.3v17.36c5.31-10.45,13.28-17.36,23.91-17.36,5.32,0,10.45,1.59,14.17,3.72l-2.84,10.27c-3.54-2.12-7.79-3.54-12.4-3.54-8.5,0-16.47,6.38-22.85,20.9v52.08Z"/>
      <path class="st0" d="M599.57,144.24c-24.45,0-39.68-17.54-39.68-42.69s16.83-43.04,39.85-43.04c9.92,0,18.42,2.48,25.33,6.91l-2.84,9.92c-6.2-4.07-13.99-6.55-22.5-6.55-17.54,0-28.52,13.11-28.52,32.41s11.51,32.77,28.69,32.77c8.15,0,16.3-2.66,22.5-6.73l2.3,10.1c-6.91,4.25-15.76,6.91-25.15,6.91"/>
      <path class="st0" d="M692.97,141.94v-52.43c0-14.17-5.67-20.55-17.36-20.55-9.39,0-18.42,4.79-25.15,11.51v61.47h-10.98V22.56l10.98-2.3v51.19c8.5-8.5,19.13-12.93,28.16-12.93,15.76,0,25.33,10.1,25.33,27.81v55.62h-10.98Z"/>
    </g>
  </g>
  <g>
    <path class="st1" d="M523.84,254.07c-2.21-2.18-4.8-3.88-7.76-5.11-2.97-1.23-6.22-1.85-9.75-1.85h-13.44v48.47h13.54c3.47,0,6.69-.6,9.66-1.8,2.97-1.2,5.57-2.9,7.81-5.11,2.24-2.21,3.98-4.78,5.21-7.72s1.85-6.11,1.85-9.51-.63-6.69-1.89-9.66c-1.26-2.97-3-5.54-5.21-7.72Z"/>
    <path class="st1" d="M207.24,263.68c2.24-1.77,3.36-4.17,3.36-7.19s-1.12-5.43-3.36-7.19c-2.24-1.77-5.25-2.65-9.04-2.65h-17.99v19.69h17.99c3.79,0,6.8-.88,9.04-2.65Z"/>
    <path class="st1" d="M209.18,277.27c-2.46-1.99-5.71-2.98-9.75-2.98h-19.22v21.77h19.22c4.04,0,7.29-.98,9.75-2.93s3.69-4.61,3.69-7.95-1.23-5.92-3.69-7.9Z"/>
    <polygon class="st1" points="247.33 276.84 270.53 276.84 258.98 247.68 247.33 276.84"/>
    <polygon class="st1" points="431.17 276.84 454.36 276.84 442.81 247.68 431.17 276.84"/>
    <path class="st1" d="M0,203.96v135.26h703.95v-135.26H0ZM71.07,304.48l-7.67-19.41h-29.72l-7.67,19.41h-10.32l27.36-66.27h11.64l27.17,66.27h-10.79ZM156.83,304.48h-9.56v-54.15l-24.61,49.42-24.71-49.42v54.15h-9.18v-66.27h13.16l20.83,42.41,20.73-42.41h13.35v66.27ZM220.12,295.54c-1.86,2.87-4.51,5.08-7.95,6.63-3.44,1.55-7.46,2.32-12.07,2.32h-29.82v-66.27h28.59c4.42,0,8.22.73,11.41,2.18,3.19,1.45,5.68,3.49,7.48,6.11,1.8,2.62,2.7,5.7,2.7,9.23,0,3.16-.85,6-2.56,8.52-1.7,2.52-3.98,4.45-6.82,5.77,3.66,1.39,6.55,3.42,8.66,6.11,2.11,2.68,3.17,5.82,3.17,9.42,0,3.79-.93,7.12-2.79,9.99ZM281.41,304.48l-7.67-19.41h-29.72l-7.67,19.41h-10.32l27.36-66.27h11.64l27.17,66.27h-10.79ZM346.02,295.77c-2.18,3.09-5.27,5.48-9.28,7.15-4.01,1.67-8.63,2.51-13.87,2.51s-10.41-1.02-15.34-3.08c-4.92-2.05-9.28-5-13.06-8.85l6.06-7c3.6,3.54,7.27,6.15,11.03,7.86,3.75,1.7,7.72,2.56,11.88,2.56,3.16,0,5.93-.47,8.33-1.42,2.4-.95,4.27-2.26,5.63-3.93,1.36-1.67,2.04-3.58,2.04-5.73,0-2.96-1.04-5.25-3.12-6.86-2.08-1.61-5.52-2.79-10.32-3.55l-10.98-1.89c-6.12-1.01-10.68-2.93-13.68-5.77-3-2.84-4.5-6.63-4.5-11.36,0-3.79,1.01-7.13,3.03-10.03,2.02-2.9,4.88-5.14,8.57-6.72,3.69-1.58,7.97-2.37,12.83-2.37s9.51.79,14.15,2.37c4.64,1.58,8.82,3.79,12.54,6.63l-5.49,7.67c-7.13-5.43-14.36-8.14-21.68-8.14-2.9,0-5.44.41-7.62,1.23-2.18.82-3.85,1.97-5.02,3.46-1.17,1.48-1.75,3.23-1.75,5.25,0,2.59.91,4.61,2.75,6.06,1.83,1.45,4.83,2.52,8.99,3.22l10.79,1.7c7.01,1.14,12.15,3.19,15.43,6.15,3.28,2.97,4.92,7.04,4.92,12.21,0,4.04-1.09,7.61-3.27,10.7ZM404.99,295.77c-2.18,3.09-5.27,5.48-9.28,7.15-4.01,1.67-8.63,2.51-13.87,2.51s-10.41-1.02-15.34-3.08c-4.92-2.05-9.28-5-13.06-8.85l6.06-7c3.6,3.54,7.27,6.15,11.03,7.86,3.75,1.7,7.71,2.56,11.88,2.56,3.16,0,5.93-.47,8.33-1.42,2.4-.95,4.27-2.26,5.63-3.93,1.36-1.67,2.04-3.58,2.04-5.73,0-2.96-1.04-5.25-3.12-6.86-2.08-1.61-5.52-2.79-10.32-3.55l-10.98-1.89c-6.12-1.01-10.68-2.93-13.68-5.77-3-2.84-4.5-6.63-4.5-11.36,0-3.79,1.01-7.13,3.03-10.03,2.02-2.9,4.88-5.14,8.57-6.72,3.69-1.58,7.97-2.37,12.83-2.37s9.51.79,14.15,2.37c4.64,1.58,8.82,3.79,12.54,6.63l-5.49,7.67c-7.13-5.43-14.36-8.14-21.68-8.14-2.9,0-5.44.41-7.62,1.23-2.18.82-3.85,1.97-5.02,3.46-1.17,1.48-1.75,3.23-1.75,5.25,0,2.59.91,4.61,2.75,6.06,1.83,1.45,4.83,2.52,8.99,3.22l10.79,1.7c7.01,1.14,12.15,3.19,15.43,6.15,3.28,2.97,4.92,7.04,4.92,12.21,0,4.04-1.09,7.61-3.27,10.7ZM465.25,304.48l-7.67-19.41h-29.72l-7.67,19.41h-10.32l27.36-66.27h11.64l27.17,66.27h-10.79ZM538.52,284.56c-1.77,4.01-4.21,7.51-7.34,10.51-3.12,3-6.8,5.32-11.03,6.96-4.23,1.64-8.87,2.46-13.92,2.46h-23.29v-66.27h23.29c5.05,0,9.67.82,13.87,2.46,4.2,1.64,7.87,3.96,11.03,6.96,3.16,3,5.62,6.52,7.38,10.56,1.77,4.04,2.65,8.42,2.65,13.16s-.88,9.2-2.65,13.21ZM615.2,284.75c-1.77,4.13-4.23,7.76-7.38,10.89-3.16,3.12-6.83,5.55-11.03,7.29-4.2,1.73-8.73,2.6-13.58,2.6s-9.2-.87-13.39-2.6c-4.2-1.74-7.87-4.17-11.03-7.29-3.16-3.12-5.6-6.75-7.34-10.89-1.74-4.13-2.6-8.6-2.6-13.4s.87-9.26,2.6-13.39c1.74-4.13,4.18-7.76,7.34-10.89,3.15-3.12,6.83-5.55,11.03-7.29,4.2-1.74,8.66-2.6,13.39-2.6s9.39.87,13.58,2.6c4.2,1.74,7.87,4.17,11.03,7.29,3.16,3.12,5.62,6.75,7.38,10.89,1.77,4.13,2.65,8.6,2.65,13.39s-.88,9.26-2.65,13.4ZM670.57,304.48l-13.63-27.17h-18.55v27.17h-9.94v-66.27h29.91c4.42,0,8.28.82,11.6,2.46,3.31,1.64,5.9,3.93,7.76,6.86,1.86,2.93,2.79,6.39,2.79,10.37,0,4.29-1.25,8.03-3.74,11.22-2.49,3.19-5.76,5.44-9.8,6.77l14.67,28.59h-11.08Z"/>
    <polygon class="st1" points="36.99 276.84 60.18 276.84 48.63 247.68 36.99 276.84"/>
    <path class="st1" d="M600.62,253.51c-2.21-2.24-4.78-3.99-7.72-5.25-2.93-1.26-6.14-1.89-9.61-1.89s-6.59.63-9.56,1.89c-2.97,1.26-5.55,3.01-7.76,5.25-2.21,2.24-3.93,4.89-5.16,7.95-1.23,3.06-1.85,6.36-1.85,9.89s.62,6.83,1.85,9.89c1.23,3.06,2.95,5.71,5.16,7.95,2.21,2.24,4.81,3.99,7.81,5.25,3,1.26,6.2,1.89,9.61,1.89s6.58-.63,9.51-1.89c2.94-1.26,5.52-3.01,7.76-5.25,2.24-2.24,3.98-4.89,5.21-7.95,1.23-3.06,1.85-6.36,1.85-9.89s-.63-6.83-1.89-9.89c-1.26-3.06-3-5.71-5.21-7.95Z"/>
    <path class="st1" d="M670.48,257.91c0-3.34-1.17-6.01-3.5-8-2.34-1.99-5.46-2.98-9.37-2.98h-19.22v22.06h19.22c3.91,0,7.04-.99,9.37-2.98,2.33-1.99,3.5-4.69,3.5-8.09Z"/>
  </g>
</svg>